<svg width="1200" height="780" viewBox="0 0 1200 780" fill="none" xmlns="http://www.w3.org/2000/svg">
  <defs>
    <linearGradient id="shell" x1="130" y1="96" x2="1070" y2="684" gradientUnits="userSpaceOnUse">
      <stop stop-color="#F7F7F2"/>
      <stop offset="1" stop-color="#EFEFE8"/>
    </linearGradient>
    <linearGradient id="sidebar" x1="174" y1="148" x2="418" y2="632" gradientUnits="userSpaceOnUse">
      <stop stop-color="#F3F3EC"/>
      <stop offset="1" stop-color="#ECECE3"/>
    </linearGradient>
    <linearGradient id="today" x1="540" y1="346" x2="1020" y2="566" gradientUnits="userSpaceOnUse">
      <stop stop-color="#FAFAF6"/>
      <stop offset="1" stop-color="#F2F2EB"/>
    </linearGradient>
  </defs>
  <rect width="1200" height="780" fill="#EEEDE6"/>
  <rect x="64" y="56" width="1072" height="668" rx="24" fill="url(#shell)" stroke="#D8D7CF"/>
  <rect x="96" y="96" width="1008" height="588" rx="18" fill="#FCFCF8" stroke="#E1E0D7"/>
  <rect x="130" y="130" width="278" height="520" rx="14" fill="url(#sidebar)" stroke="#E1E0D7"/>
  <rect x="174" y="174" width="94" height="14" rx="4" fill="#61605B"/>
  <rect x="174" y="214" width="110" height="10" rx="3" fill="#A2A099"/>
  <rect x="174" y="254" width="190" height="52" rx="10" fill="#FBFBF7" stroke="#E1E0D7"/>
  <rect x="192" y="272" width="54" height="8" rx="3" fill="#5F70D8"/>
  <rect x="192" y="288" width="146" height="8" rx="3" fill="#D8D7CF"/>
  <rect x="174" y="324" width="190" height="52" rx="10" fill="#F3F2EB" stroke="#E1E0D7"/>
  <rect x="192" y="342" width="62" height="8" rx="3" fill="#6D6A61"/>
  <rect x="192" y="358" width="128" height="8" rx="3" fill="#D8D7CF"/>
  <rect x="174" y="394" width="190" height="52" rx="10" fill="#F3F2EB" stroke="#E1E0D7"/>
  <rect x="192" y="412" width="72" height="8" rx="3" fill="#6D6A61"/>
  <rect x="192" y="428" width="136" height="8" rx="3" fill="#D8D7CF"/>
  <rect x="444" y="130" width="626" height="78" rx="14" fill="#F7F7F2" stroke="#E1E0D7"/>
  <rect x="484" y="160" width="186" height="14" rx="4" fill="#34332F"/>
  <rect x="484" y="186" width="314" height="10" rx="3" fill="#A2A099"/>
  <rect x="444" y="238" width="626" height="382" rx="18" fill="#F6F5EE" stroke="#E1E0D7"/>
  <rect x="484" y="278" width="170" height="12" rx="4" fill="#44433E"/>
  <rect x="484" y="304" width="218" height="10" rx="3" fill="#AAA8A0"/>
  <rect x="484" y="346" width="546" height="240" rx="16" fill="url(#today)" stroke="#DDDCD3"/>
  <rect x="516" y="380" width="98" height="20" rx="10" fill="#E3E7FF"/>
  <rect x="532" y="386" width="66" height="8" rx="4" fill="#5F70D8"/>
  <rect x="516" y="430" width="438" height="58" rx="14" fill="#FCFCF8" stroke="#E1E0D7"/>
  <rect x="542" y="450" width="164" height="8" rx="3" fill="#34332F"/>
  <rect x="542" y="466" width="302" height="8" rx="3" fill="#B0AEA7"/>
  <path d="M972 459H1012" stroke="#5F70D8" stroke-width="10" stroke-linecap="round"/>
  <rect x="516" y="504" width="438" height="58" rx="14" fill="#FCFCF8" stroke="#E1E0D7"/>
  <rect x="542" y="524" width="138" height="8" rx="3" fill="#34332F"/>
  <rect x="542" y="540" width="286" height="8" rx="3" fill="#B0AEA7"/>
  <path d="M914 533L948 533" stroke="#5F70D8" stroke-width="10" stroke-linecap="round"/>
  <path d="M988 533L1020 533" stroke="#D9D7CE" stroke-width="10" stroke-linecap="round"/>
</svg>
